{
    "asset" : {
        "generator" : "Khronos glTF Blender I/O v1.8.19",
        "version" : "2.0"
    },
    "scene" : 0,
    "scenes" : [
        {
            "name" : "Scene",
            "nodes" : [
                0,
                1,
                2
            ]
        }
    ],
    "nodes" : [
        {
            "name" : "Empty",
            "scale" : [
                75,
                1,
                75
            ],
            "translation" : [
                0.5,
                0,
                -0.5
            ]
        },
        {
            "mesh" : 0,
            "name" : "Curve",
            "rotation" : [
                0,
                -0.0614667646586895,
                0,
                0.9981092214584351
            ],
            "scale" : [
                263.7099609375,
                16.942228317260742,
                263.7099609375
            ],
            "translation" : [
                -11.544300079345703,
                0,
                -20.588838577270508
            ]
        },
        {
            "mesh" : 1,
            "name" : "Curve.001",
            "rotation" : [
                0,
                0.2022363841533661,
                0,
                0.9793368577957153
            ],
            "scale" : [
                263.7099609375,
                16.942228317260742,
                -263.7099914550781
            ],
            "translation" : [
                -135.35989379882812,
                1.0279866456985474,
                -43.569236755371094
            ]
        }
    ],
    "materials" : [
        {
            "doubleSided" : true,
            "name" : "Material.002",
            "pbrMetallicRoughness" : {
                "metallicFactor" : 0,
                "roughnessFactor" : 0.5
            }
        },
        {
            "doubleSided" : true,
            "name" : "Material.003",
            "pbrMetallicRoughness" : {
                "baseColorFactor" : [
                    0.5,
                    0.5,
                    0.5,
                    1
                ],
                "metallicFactor" : 0
            }
        }
    ],
    "meshes" : [
        {
            "name" : "Mesh.001",
            "primitives" : [
                {
                    "attributes" : {
                        "POSITION" : 0,
                        "NORMAL" : 1,
                        "TEXCOORD_0" : 2
                    },
                    "indices" : 3,
                    "material" : 0
                }
            ]
        },
        {
            "name" : "Mesh.002",
            "primitives" : [
                {
                    "attributes" : {
                        "POSITION" : 4,
                        "NORMAL" : 5
                    },
                    "indices" : 6,
                    "material" : 1
                }
            ]
        }
    ],
    "accessors" : [
        {
            "bufferView" : 0,
            "componentType" : 5126,
            "count" : 1844,
            "max" : [
                0.38869568705558777,
                6.445433139801025,
                -0.00733637809753418
            ],
            "min" : [
                -0.047194093465805054,
                0,
                -0.4034261703491211
            ],
            "type" : "VEC3"
        },
        {
            "bufferView" : 1,
            "componentType" : 5126,
            "count" : 1844,
            "type" : "VEC3"
        },
        {
            "bufferView" : 2,
            "componentType" : 5126,
            "count" : 1844,
            "type" : "VEC2"
        },
        {
            "bufferView" : 3,
            "componentType" : 5123,
            "count" : 2814,
            "type" : "SCALAR"
        },
        {
            "bufferView" : 4,
            "componentType" : 5126,
            "count" : 1820,
            "max" : [
                0.38869568705558777,
                6.905820846557617,
                -0.00733637809753418
            ],
            "min" : [
                0.04358164593577385,
                0,
                -0.1643235832452774
            ],
            "type" : "VEC3"
        },
        {
            "bufferView" : 5,
            "componentType" : 5126,
            "count" : 1820,
            "type" : "VEC3"
        },
        {
            "bufferView" : 6,
            "componentType" : 5123,
            "count" : 2760,
            "type" : "SCALAR"
        }
    ],
    "bufferViews" : [
        {
            "buffer" : 0,
            "byteLength" : 22128,
            "byteOffset" : 0
        },
        {
            "buffer" : 0,
            "byteLength" : 22128,
            "byteOffset" : 22128
        },
        {
            "buffer" : 0,
            "byteLength" : 14752,
            "byteOffset" : 44256
        },
        {
            "buffer" : 0,
            "byteLength" : 5628,
            "byteOffset" : 59008
        },
        {
            "buffer" : 0,
            "byteLength" : 21840,
            "byteOffset" : 64636
        },
        {
            "buffer" : 0,
            "byteLength" : 21840,
            "byteOffset" : 86476
        },
        {
            "buffer" : 0,
            "byteLength" : 5520,
            "byteOffset" : 108316
        }
    ],
    "buffers" : [
        {
            "byteLength" : 113836,
            "uri" : "hh_model_v1.bin"
        }
    ]
}
